<?xml version="1.0" encoding="iso-8859-1"?>
<!-- Generator: Adobe Illustrator 18.0.0, SVG Export Plug-In . SVG Version: 6.00 Build 0)  -->
<!DOCTYPE svg PUBLIC "-//W3C//DTD SVG 1.1//EN" "http://www.w3.org/Graphics/SVG/1.1/DTD/svg11.dtd">
<svg version="1.1" id="Capa_1" xmlns="http://www.w3.org/2000/svg" xmlns:xlink="http://www.w3.org/1999/xlink" x="0px" y="0px"
	 viewBox="0 0 495.576 495.576" style="enable-background:new 0 0 495.576 495.576;" xml:space="preserve">
<g>
	<path d="M223.32,109.347c30.196,0,54.678-24.473,54.678-54.669C277.998,24.482,253.516,0,223.32,0
		c-30.196,0-54.677,24.482-54.677,54.678C168.643,84.874,193.124,109.347,223.32,109.347z"/>
	<path d="M414.689,454.017c-1.568-11.672-12.463-26.211-36.605-22.76c-24.624,3.522-41.981,4.391-51.429-0.562V314.366
		c9.949-5.732,14.89-17.815,11.194-29.168l-11.194-34.417V54.67c0-6.854-5.561-12.415-12.415-12.415s-12.415,5.561-12.415,12.415
		v119.77l-6.126-18.836c-5.633-17.296-21.637-28.919-39.83-28.919h-65.096c-18.186,0-34.189,11.622-39.822,28.927l-40.033,123.051
		l-2.125,6.535c-1.37,4.209-1.445,8.493-0.627,12.543c-16.207,8.715-27.378,25.634-27.378,45.287
		c0,1.738,13.005,84.931,13.005,84.931c1.39,8.3,8.567,14.387,16.989,14.387h43.242c8.422,0,15.599-6.087,16.988-14.387
		c0,0,13.005-83.193,13.005-84.931c0-19.554-11.06-36.399-27.134-45.155l5.04-15.487c23.13,10.261,38.647,34.516,38.647,60.642
		c0,1.623,0,3.024-13.232,87.663c-2.211,13.213-11.839,23.375-24.182,26.831v12.935c0,13.87,11.251,25.119,25.12,25.119
		c13.878,0,25.121-11.243,25.121-25.119V320.324h19.851v150.133c0,13.876,11.243,25.119,25.12,25.119
		c13.879,0,25.122-11.243,25.122-25.119V320.324v-8.17v-33.56l7.144,21.962c1.96,6.028,6.122,10.577,11.194,13.54v126.643
		c-1.293,5.167-10.042,43.379,12.415,49.488c68.587,18.661,44.332-25.477,64.53-22.421
		C401.531,471.249,416.16,464.993,414.689,454.017z M167.462,343.028H97.338c0-13.6,7.863-25.283,19.208-31.095
		c2.355,1.96,5.084,3.547,8.176,4.553c8.397,2.746,17.176,0.703,23.516-4.562C159.592,317.733,167.462,329.422,167.462,343.028z"/>
</g>
<g>
</g>
<g>
</g>
<g>
</g>
<g>
</g>
<g>
</g>
<g>
</g>
<g>
</g>
<g>
</g>
<g>
</g>
<g>
</g>
<g>
</g>
<g>
</g>
<g>
</g>
<g>
</g>
<g>
</g>
</svg>
